<mxfile host="app.diagrams.net" modified="2020-11-03T05:30:41.235Z" agent="5.0 (Windows NT 6.1; Win64; x64) AppleWebKit/537.36 (KHTML, like Gecko) Chrome/86.0.4240.111 Safari/537.36" etag="um_Rhq_T9hS87r8gBMjW" version="13.8.8" type="github">
  <diagram id="vlNP0WPvC7XqJ8PHWE0b" name="Page-1">
    <mxGraphModel dx="1102" dy="614" grid="1" gridSize="10" guides="1" tooltips="1" connect="1" arrows="1" fold="1" page="1" pageScale="1" pageWidth="850" pageHeight="1100" math="0" shadow="0">
      <root>
        <mxCell id="0" />
        <mxCell id="1" parent="0" />
        <mxCell id="96XVlwf6gydmcT1nNr6S-1" value="&lt;font style=&quot;font-size: 20px&quot;&gt;Features of IDE&lt;/font&gt;" style="ellipse;whiteSpace=wrap;html=1;strokeWidth=3;" parent="1" vertex="1">
          <mxGeometry x="300" y="470" width="210" height="160" as="geometry" />
        </mxCell>
        <mxCell id="96XVlwf6gydmcT1nNr6S-2" value="" style="endArrow=classic;html=1;strokeWidth=3;" parent="1" source="96XVlwf6gydmcT1nNr6S-1" edge="1">
          <mxGeometry width="50" height="50" relative="1" as="geometry">
            <mxPoint x="570" y="520" as="sourcePoint" />
            <mxPoint x="620" y="450" as="targetPoint" />
          </mxGeometry>
        </mxCell>
        <mxCell id="96XVlwf6gydmcT1nNr6S-3" value="" style="endArrow=classic;html=1;strokeWidth=3;" parent="1" source="96XVlwf6gydmcT1nNr6S-1" edge="1">
          <mxGeometry width="50" height="50" relative="1" as="geometry">
            <mxPoint x="530" y="630" as="sourcePoint" />
            <mxPoint x="620" y="630" as="targetPoint" />
          </mxGeometry>
        </mxCell>
        <mxCell id="96XVlwf6gydmcT1nNr6S-4" value="" style="endArrow=classic;html=1;entryX=1;entryY=0.5;entryDx=0;entryDy=0;strokeWidth=3;" parent="1" source="96XVlwf6gydmcT1nNr6S-1" target="96XVlwf6gydmcT1nNr6S-11" edge="1">
          <mxGeometry width="50" height="50" relative="1" as="geometry">
            <mxPoint x="260" y="740" as="sourcePoint" />
            <mxPoint x="200" y="650" as="targetPoint" />
          </mxGeometry>
        </mxCell>
        <mxCell id="96XVlwf6gydmcT1nNr6S-5" value="" style="endArrow=classic;html=1;entryX=1;entryY=0.5;entryDx=0;entryDy=0;strokeWidth=3;" parent="1" source="96XVlwf6gydmcT1nNr6S-1" target="96XVlwf6gydmcT1nNr6S-10" edge="1">
          <mxGeometry width="50" height="50" relative="1" as="geometry">
            <mxPoint x="170" y="540" as="sourcePoint" />
            <mxPoint x="250" y="480" as="targetPoint" />
          </mxGeometry>
        </mxCell>
        <mxCell id="96XVlwf6gydmcT1nNr6S-6" value="" style="endArrow=classic;html=1;strokeWidth=3;" parent="1" source="96XVlwf6gydmcT1nNr6S-1" edge="1">
          <mxGeometry width="50" height="50" relative="1" as="geometry">
            <mxPoint x="450" y="760" as="sourcePoint" />
            <mxPoint x="407" y="770" as="targetPoint" />
          </mxGeometry>
        </mxCell>
        <mxCell id="96XVlwf6gydmcT1nNr6S-7" value="" style="endArrow=classic;html=1;exitX=0.5;exitY=0;exitDx=0;exitDy=0;strokeWidth=3;" parent="1" source="96XVlwf6gydmcT1nNr6S-1" edge="1">
          <mxGeometry width="50" height="50" relative="1" as="geometry">
            <mxPoint x="370" y="430" as="sourcePoint" />
            <mxPoint x="405" y="340" as="targetPoint" />
          </mxGeometry>
        </mxCell>
        <mxCell id="96XVlwf6gydmcT1nNr6S-8" value="&lt;font style=&quot;font-size: 20px&quot;&gt;Code Editor&lt;br&gt;(For Editing Code)&lt;/font&gt;" style="rounded=1;whiteSpace=wrap;html=1;strokeWidth=3;" parent="1" vertex="1">
          <mxGeometry x="302.5" y="250" width="207.5" height="90" as="geometry" />
        </mxCell>
        <mxCell id="96XVlwf6gydmcT1nNr6S-9" value="&lt;div&gt;&lt;span style=&quot;font-size: 20px&quot;&gt;Debugger&lt;/span&gt;&lt;br&gt;&lt;/div&gt;&lt;div&gt;&lt;span style=&quot;font-size: 20px&quot;&gt;(To Find Out Errors)&lt;/span&gt;&lt;/div&gt;" style="rounded=1;whiteSpace=wrap;html=1;strokeWidth=3;" parent="1" vertex="1">
          <mxGeometry x="620" y="400" width="207.5" height="90" as="geometry" />
        </mxCell>
        <mxCell id="96XVlwf6gydmcT1nNr6S-10" value="&lt;div&gt;&lt;span style=&quot;font-size: 20px&quot;&gt;Code Completion&lt;/span&gt;&lt;/div&gt;&lt;div&gt;&lt;span style=&quot;font-size: 20px&quot;&gt;(Auto Completion of Code)&lt;/span&gt;&lt;br&gt;&lt;/div&gt;" style="rounded=1;whiteSpace=wrap;html=1;strokeWidth=3;" parent="1" vertex="1">
          <mxGeometry x="10" y="400" width="247.5" height="90" as="geometry" />
        </mxCell>
        <mxCell id="96XVlwf6gydmcT1nNr6S-11" value="&lt;span style=&quot;font-size: 20px&quot;&gt;Compiler or Interpreter&lt;/span&gt;" style="rounded=1;whiteSpace=wrap;html=1;strokeWidth=3;" parent="1" vertex="1">
          <mxGeometry x="10" y="590" width="217.5" height="90" as="geometry" />
        </mxCell>
        <mxCell id="96XVlwf6gydmcT1nNr6S-12" value="&lt;span style=&quot;font-size: 20px&quot;&gt;&lt;span&gt;	&lt;/span&gt;Programming Language Support&lt;br&gt;(Java,Python,C,C# etc)&lt;/span&gt;" style="rounded=1;whiteSpace=wrap;html=1;strokeWidth=3;" parent="1" vertex="1">
          <mxGeometry x="256.25" y="770" width="297.5" height="130" as="geometry" />
        </mxCell>
        <mxCell id="96XVlwf6gydmcT1nNr6S-13" value="&lt;div&gt;&lt;span style=&quot;font-size: 20px&quot;&gt;Integrations and Plugins&lt;/span&gt;&lt;/div&gt;&lt;div&gt;&lt;span style=&quot;font-size: 20px&quot;&gt;(For More Use)&lt;/span&gt;&lt;br&gt;&lt;/div&gt;" style="rounded=1;whiteSpace=wrap;html=1;strokeWidth=3;" parent="1" vertex="1">
          <mxGeometry x="620" y="590" width="207.5" height="90" as="geometry" />
        </mxCell>
        <mxCell id="63K_yykyCDgcRAV_Z2sc-2" value="&lt;div&gt;&lt;span style=&quot;font-size: 20px&quot;&gt;IDE:It stands for&amp;nbsp; Integrated Development Environment.&lt;/span&gt;&lt;/div&gt;&lt;div&gt;&lt;span style=&quot;font-size: 20px&quot;&gt;This is a Tool/Software for writing code efficiently.&lt;/span&gt;&lt;/div&gt;&lt;div&gt;&lt;span style=&quot;font-size: 20px&quot;&gt;&lt;br&gt;&lt;/span&gt;&lt;/div&gt;&lt;div&gt;&lt;span style=&quot;font-size: 20px&quot;&gt;Code Editor:This is only for code editing&amp;nbsp;&lt;/span&gt;&lt;/div&gt;" style="text;html=1;strokeColor=none;fillColor=none;align=center;verticalAlign=middle;whiteSpace=wrap;rounded=0;" parent="1" vertex="1">
          <mxGeometry x="75" y="50" width="700" height="170" as="geometry" />
        </mxCell>
      </root>
    </mxGraphModel>
  </diagram>
</mxfile>
